# xmcd
#
# Track frame offsets: 
#        150
#        17409
#        34806
#        50619
#        66188
#        87987
#        108164
#        120226
#        139091
#        157528
#        172597
#        191480
#        207810
#        227594
#        249718
#        267097
#        287219
#        307185
#        323045
#
# Disc length: 4513 seconds
#
# Revision: 0
# Processed by: cddbd v1.5.2PL0 Copyright (c) Steve Scherf et al.
# Submitted via: ExactAudioCopy v1.1
#
DISCID=f5119f13
DTITLE=Various Artist - Nostalgie - Le Meilleur Du Top 1000 (2015) - CD 4
DYEAR=2015
DGENRE=Top 40
TTITLE0=Visage - Fade To Grey
TTITLE1=Chicago - If You Leave Me Now
TTITLE2=Ace Of Base - All That She Wants
TTITLE3=Boney M - Daddy Cool
TTITLE4=Maurane - Sur Un Prélude De Bach
TTITLE5=Seal - Crazy
TTITLE6=Otis Redding - (Sittin' On) The Dock Of The Bay
TTITLE7=Daniel Lavoie - Ils S'Aiment
TTITLE8=Simply Red - Stars
TTITLE9=Jeanette - Porque Te Vas
TTITLE10=Cliff Richard - We Don't Talk Anymore
TTITLE11=Adrian Gurvitz - Classic
TTITLE12=The Pasadenas - Tribute (Right On)
TTITLE13=Barbara - L'Aigle Noir
TTITLE14=Cyndi Lauper - Girls Just Want To Have Fun
TTITLE15=The Animals - The House Of The Rising Sun
TTITLE16=Yes - Owner Of A Lonely Heart
TTITLE17=Claude Nougaro - Nougayork
TTITLE18=Kate Bush - Wuthering Heights
EXTD=
EXTT0=
EXTT1=
EXTT2=
EXTT3=
EXTT4=
EXTT5=
EXTT6=
EXTT7=
EXTT8=
EXTT9=
EXTT10=
EXTT11=
EXTT12=
EXTT13=
EXTT14=
EXTT15=
EXTT16=
EXTT17=
EXTT18=
PLAYORDER=
